<?xml version="1.0" standalone="no"?>
<!DOCTYPE svg PUBLIC "-//W3C//DTD SVG 20010904//EN"
 "http://www.w3.org/TR/2001/REC-SVG-20010904/DTD/svg10.dtd">
<svg version="1.0" xmlns="http://www.w3.org/2000/svg"
 width="1024.000000pt" height="1024.000000pt" viewBox="0 0 1024.000000 1024.000000"
 preserveAspectRatio="xMidYMid meet">

<g transform="translate(0.000000,1024.000000) scale(0.100000,-0.100000)"
fill="#000000" stroke="none">
<path d="M0 5120 l0 -5120 5120 0 5120 0 0 5120 0 5120 -5120 0 -5120 0 0
-5120z m4949 3563 c69 -84 109 -259 97 -424 -14 -182 -56 -276 -191 -418 -158
-168 -208 -240 -248 -359 -18 -56 -22 -89 -22 -202 0 -74 3 -150 7 -167 4 -18
4 -33 -1 -33 -14 0 -93 61 -87 68 3 3 15 -4 26 -16 12 -12 24 -22 27 -22 7 0
-25 39 -47 57 -18 15 -34 17 -25 3 10 -16 -1 -12 -15 6 -8 8 -9 14 -4 13 22
-4 34 2 34 19 0 26 -25 67 -39 64 -7 -1 -10 2 -6 8 7 11 -33 127 -46 136 -5 3
-6 16 -3 30 3 13 3 46 -1 72 -7 42 -9 44 -16 22 -6 -18 -7 -12 -3 19 7 64 57
178 113 257 27 38 106 132 175 209 103 113 135 157 172 230 80 162 90 287 37
468 -4 16 -2 17 15 8 11 -6 34 -28 51 -48z m712 -12 c90 -122 116 -401 55
-585 -32 -96 -64 -143 -175 -260 -210 -221 -265 -361 -241 -605 6 -58 13 -114
16 -123 10 -33 -39 -5 -103 58 -46 46 -61 67 -56 80 4 11 3 15 -5 10 -17 -10
-26 14 -23 66 1 27 -2 48 -8 48 -6 0 -8 -7 -5 -15 4 -8 2 -15 -4 -15 -28 0
-41 259 -13 268 5 2 7 10 4 19 -5 12 -3 14 7 8 9 -5 11 -4 6 4 -20 32 83 195
215 341 232 257 289 366 289 549 0 76 -4 106 -25 199 -5 22 -5 23 15 9 12 -8
35 -33 51 -56z m-1284 -1228 c-3 -10 -5 -2 -5 17 0 19 2 27 5 18 2 -10 2 -26
0 -35z m10 -55 c-3 -7 -5 -2 -5 12 0 14 2 19 5 13 2 -7 2 -19 0 -25z m40 -120
c0 -7 4 -22 7 -33 5 -13 2 -11 -7 5 -9 14 -13 28 -11 32 7 11 11 10 11 -4z
m2187 -412 c103 -43 99 -187 -7 -243 -23 -12 -100 -15 -435 -16 -532 -3 -2349
6 -2252 10 41 2 78 7 82 11 4 4 -22 5 -59 4 -40 -2 -63 0 -59 6 6 11 -40 21
-134 28 -93 7 -128 13 -132 25 -2 5 -60 12 -133 16 -185 8 -215 12 -215 31 0
12 -3 13 -11 5 -9 -9 -8 -16 5 -28 18 -19 21 -29 5 -19 -6 3 -15 1 -19 -6 -5
-8 -9 -7 -13 5 -5 10 -3 14 4 9 7 -4 10 -1 7 7 -3 8 -10 13 -16 12 -6 -2 -9
13 -8 36 3 39 29 84 56 98 29 15 303 18 1792 21 1313 2 1511 1 1542 -12z
m-3267 -242 c-3 -3 -12 -4 -19 -1 -8 3 -5 6 6 6 11 1 17 -2 13 -5z m486 -11
c-7 -2 -19 -2 -25 0 -7 3 -2 5 12 5 14 0 19 -2 13 -5z m2804 -246 c26 -29 32
-46 38 -102 4 -36 5 -308 2 -603 -5 -565 -11 -642 -57 -807 -36 -127 -23 -164
63 -191 81 -25 306 -31 387 -10 240 61 430 238 510 476 31 92 39 289 15 379
-34 133 -117 260 -220 338 -113 85 -222 126 -385 143 -114 11 -152 27 -180 73
-43 70 -13 153 67 189 88 39 278 11 446 -66 552 -251 727 -941 362 -1431 -139
-187 -328 -309 -560 -361 -92 -20 -289 -24 -506 -10 -161 11 -165 9 -237 -93
-129 -182 -248 -312 -369 -403 -52 -39 -97 -68 -100 -64 -4 3 -2 6 3 6 5 0 9
15 9 34 0 32 -1 33 -25 23 -14 -6 -31 -15 -37 -20 -7 -5 -24 -6 -37 -3 -14 3
-28 2 -31 -4 -3 -5 -26 -10 -51 -10 -45 0 -152 -29 -208 -56 -25 -13 -28 -13
-22 1 3 8 2 15 -2 15 -17 0 -62 -26 -62 -35 0 -6 -3 -5 -8 1 -4 6 -18 14 -32
18 -19 6 -22 5 -10 -3 23 -17 -5 -31 -63 -31 -26 0 -62 -7 -79 -16 -22 -12
-45 -14 -77 -10 -32 4 -41 3 -31 -4 12 -8 10 -10 -10 -11 -14 -1 -45 -2 -70
-3 -54 -3 -271 13 -320 23 -20 4 42 7 140 7 257 0 440 39 640 135 369 177 653
490 779 858 35 102 71 254 88 374 14 93 16 202 15 641 -2 510 -1 531 18 571
43 89 145 109 207 42z m-2846 18 c49 -18 83 -46 107 -90 15 -27 18 -100 22
-670 7 -727 4 -706 95 -891 138 -283 378 -465 695 -530 125 -25 343 -16 465
20 368 109 626 381 711 752 28 120 25 331 -5 448 -112 431 -464 732 -892 763
-79 5 -97 10 -116 29 -35 35 -30 79 12 121 l36 36 102 -6 c421 -26 826 -330
990 -742 69 -175 93 -317 84 -509 -11 -228 -65 -395 -192 -586 -220 -331 -584
-520 -1003 -520 -69 0 -141 4 -161 10 -20 5 -69 14 -108 21 -51 7 -73 15 -73
25 0 8 -2 14 -4 14 -2 0 -13 3 -23 6 -16 5 -16 4 1 -10 25 -20 14 -21 -23 -1
-16 8 -32 11 -36 7 -5 -4 -5 -1 -1 6 5 8 -1 12 -19 12 -14 0 -28 7 -32 16 -3
9 -13 14 -25 11 -23 -6 -110 42 -201 109 -58 43 -64 51 -54 69 9 18 8 18 -6 7
-13 -11 -20 -10 -46 9 -17 12 -28 26 -25 31 10 16 15 64 5 49 -6 -9 -11 -10
-15 -3 -4 6 -13 9 -21 6 -8 -4 -18 1 -21 10 -3 9 -14 16 -23 17 -10 0 -11 2
-3 6 6 2 12 9 12 15 0 6 -6 8 -14 5 -14 -6 -30 8 -51 43 -5 9 -23 35 -38 58
-37 52 -99 197 -126 292 -35 125 -41 242 -41 796 0 527 0 531 -21 550 -18 17
-42 20 -194 24 -121 4 -177 9 -188 18 -43 36 -22 122 36 147 48 21 369 20 428
0z m-526 -315 c4 -6 10 -8 15 -5 12 8 56 -32 68 -62 7 -18 12 -182 14 -477 3
-449 -6 -544 -17 -176 -3 107 -10 258 -15 335 -4 77 -6 160 -3 185 6 49 -12
130 -28 130 -6 0 -8 4 -4 9 3 5 -4 12 -15 16 -11 4 -18 10 -15 15 3 5 -6 12
-20 16 -14 3 -25 10 -25 15 0 12 37 11 45 -1z m1613 -170 c2 -30 9 -58 15 -62
7 -4 33 -8 58 -8 115 0 285 -68 366 -146 74 -70 46 -113 -32 -50 -99 82 -228
126 -365 126 -144 0 -259 -39 -375 -125 -275 -207 -302 -630 -54 -878 101
-101 257 -166 402 -167 65 0 188 26 251 54 101 45 224 163 276 266 47 92 62
170 62 308 l0 133 39 25 c57 35 66 62 46 127 -33 106 -128 221 -248 304 -43
29 -69 53 -69 65 0 32 43 20 117 -31 159 -112 268 -283 309 -484 21 -104 14
-271 -15 -374 -78 -273 -296 -486 -571 -558 -106 -28 -392 -22 -374 7 4 7 2 8
-5 4 -15 -10 -73 3 -66 15 4 5 0 6 -8 3 -28 -11 -173 74 -244 143 -21 20 -29
30 -18 22 18 -13 19 -13 6 3 -7 10 -17 16 -21 13 -9 -6 -70 54 -70 68 0 5 7 4
15 -3 24 -20 18 -5 -7 16 -14 12 -19 14 -14 4 5 -8 -3 -1 -17 15 -39 45 -96
166 -118 253 -27 101 -29 269 -5 367 52 209 199 395 406 512 83 47 227 94 280
91 l45 -3 3 -55z m184 -412 c69 -32 136 -97 167 -162 29 -59 38 -164 21 -235
-18 -75 -80 -162 -146 -206 -99 -66 -202 -80 -319 -44 -54 17 -78 31 -125 77
-89 87 -105 125 -105 252 0 94 3 110 27 155 45 84 116 147 201 177 78 27 204
21 279 -14z m-1685 -455 c-3 -10 -5 -4 -5 12 0 17 2 24 5 18 2 -7 2 -21 0 -30z
m682 -647 c11 -14 6 -15 -27 -7 -4 1 8 21 12 21 2 0 9 -6 15 -14z m-378 -53
c13 -16 12 -17 -3 -4 -17 13 -22 21 -14 21 2 0 10 -8 17 -17z m50 -65 c15 -28
5 -21 -21 15 -15 20 -17 27 -6 18 9 -8 22 -23 27 -33z m80 -85 c13 -16 12 -17
-3 -4 -10 7 -18 15 -18 17 0 8 8 3 21 -13z m54 -53 c10 -11 16 -20 13 -20 -3
0 -13 9 -23 20 -10 11 -16 20 -13 20 3 0 13 -9 23 -20z m90 -78 c-3 -3 -11 0
-18 7 -9 10 -8 11 6 5 10 -3 15 -9 12 -12z m55 -38 c0 -2 -9 0 -20 6 -11 6
-20 13 -20 16 0 2 9 0 20 -6 11 -6 20 -13 20 -16z m110 -70 c0 -2 -9 0 -20 6
-11 6 -20 13 -20 16 0 2 9 0 20 -6 11 -6 20 -13 20 -16z m1790 -98 c0 -2 -7
-7 -16 -10 -8 -3 -12 -2 -9 4 6 10 25 14 25 6z m-1524 -22 c18 -14 18 -14 -6
-3 -31 14 -36 19 -24 19 6 0 19 -7 30 -16z m1504 -19 c-7 -8 -17 -15 -23 -15
-6 0 -2 7 9 15 25 19 30 19 14 0z m-1423 -11 c-3 -3 -12 -4 -19 -1 -8 3 -5 6
6 6 11 1 17 -2 13 -5z m60 -10 c-3 -3 -12 -4 -19 -1 -8 3 -5 6 6 6 11 1 17 -2
13 -5z m183 -31 c3 -3 -21 -3 -53 0 -32 3 -62 8 -65 12 -4 4 20 4 53 0 33 -4
62 -10 65 -12z m3011 -849 c60 -17 150 -73 173 -109 15 -22 13 -24 -43 -63
l-58 -41 -29 31 c-93 99 -274 86 -339 -26 -102 -174 -6 -379 180 -380 95 -1
171 49 190 127 l7 27 -106 0 c-103 0 -106 1 -112 24 -3 13 -4 38 -2 57 l3 34
184 3 184 2 -5 -83 c-4 -61 -12 -98 -32 -139 -65 -137 -230 -211 -392 -178
-123 25 -204 88 -258 200 -28 60 -31 73 -31 165 0 110 17 161 74 234 87 109
262 158 412 115z m-5031 -5 c148 -32 202 -218 90 -312 -18 -15 -31 -29 -29
-30 2 -1 17 -9 33 -17 45 -23 69 -63 74 -123 8 -94 -26 -160 -101 -199 -38
-20 -60 -23 -244 -26 l-203 -4 0 361 0 361 165 0 c90 0 187 -5 215 -11z m818
-4 c100 -30 152 -101 152 -210 0 -94 -48 -175 -120 -205 l-29 -12 89 -133 c70
-104 86 -134 74 -139 -30 -12 -132 -6 -146 8 -8 7 -47 66 -88 130 l-75 116
-52 0 -52 0 -3 -127 -3 -128 -49 -3 c-27 -2 -60 -1 -73 3 l-23 5 0 349 c0 191
3 351 7 354 3 4 81 7 173 7 120 0 181 -4 218 -15z m910 -47 l3 -58 -173 -2
-173 -3 0 -85 0 -85 148 -3 147 -3 0 -54 0 -55 -150 0 -150 0 0 -90 0 -90 175
0 175 0 0 -65 0 -65 -244 0 -244 0 -4 343 c-2 188 -1 350 1 360 3 16 21 17
245 15 l241 -3 3 -57z m407 -198 l72 -255 12 45 c7 25 32 108 56 185 24 77 53
173 65 213 l21 73 66 -3 66 -3 28 -85 c15 -47 49 -157 75 -245 25 -88 49 -164
52 -169 3 -5 37 105 77 245 l72 254 76 3 76 3 -16 -53 c-48 -163 -207 -645
-216 -656 -7 -9 -30 -12 -71 -10 l-60 3 -41 125 c-22 69 -58 180 -79 248 -21
68 -40 122 -42 120 -3 -4 -110 -342 -139 -442 l-16 -56 -69 0 -69 0 -20 63
c-10 34 -60 191 -110 349 -50 157 -91 291 -91 297 0 8 24 11 77 9 l76 -3 72
-255z m1190 -95 l0 -350 -72 -3 -73 -3 0 356 0 356 73 -3 72 -3 0 -350z m495
272 c254 -323 306 -387 313 -387 4 0 7 106 7 235 l0 235 70 0 70 0 -2 -357 -3
-358 -34 -3 c-85 -8 -85 -8 -281 238 -101 127 -184 230 -185 230 -2 0 -1 -87
2 -192 3 -106 1 -211 -4 -232 -9 -43 0 -40 -113 -37 l-30 1 0 355 0 355 63 0
62 -1 65 -82z m-3495 -1156 l0 -183 -28 -24 c-16 -14 -41 -24 -58 -24 -24 0
-29 4 -29 25 0 17 5 25 18 25 38 0 42 18 42 191 0 172 2 179 40 174 13 -2 15
-30 15 -184z m481 4 c40 -99 73 -186 73 -192 1 -7 -10 -13 -24 -13 -20 0 -28
9 -46 50 l-22 51 -85 -3 -84 -3 -18 -45 c-15 -39 -22 -45 -49 -48 l-32 -3 16
38 c9 21 41 101 72 178 72 182 69 177 101 173 24 -3 32 -18 98 -183z m259 173
c1 -2 29 -74 61 -162 50 -136 59 -155 67 -135 5 13 32 87 61 164 48 130 53
140 79 143 15 2 27 -1 27 -6 0 -11 -132 -352 -143 -369 -5 -7 -21 -13 -37 -13
-27 0 -31 6 -69 103 -58 150 -101 267 -101 278 0 8 48 5 55 -3z m707 -163 c38
-93 74 -180 79 -192 8 -21 6 -23 -20 -23 -25 0 -31 7 -50 50 l-22 51 -86 -3
-85 -3 -18 -45 c-14 -36 -23 -46 -44 -48 -15 -2 -26 2 -26 9 0 13 115 307 137
352 11 22 20 27 40 25 23 -3 32 -20 95 -173z m468 162 c24 -8 35 -18 35 -32 0
-21 1 -21 -98 -9 -54 7 -87 -12 -87 -52 0 -34 22 -49 99 -73 101 -31 128 -71
97 -145 -26 -62 -128 -85 -212 -47 -49 22 -60 37 -44 56 10 12 17 12 51 -5 74
-38 159 -19 159 36 0 23 -33 54 -57 54 -7 0 -37 9 -67 20 -43 17 -57 28 -71
57 -49 102 65 184 195 140z m491 3 c20 -6 44 -19 55 -31 18 -20 18 -21 1 -34
-15 -10 -24 -9 -54 6 -102 52 -193 -11 -193 -133 0 -52 4 -62 33 -94 44 -48
106 -57 166 -24 34 20 43 21 56 10 14 -12 13 -15 -6 -36 -51 -54 -170 -59
-234 -9 -86 65 -100 216 -27 299 42 47 128 67 203 46z m819 -187 l0 -193 -25
0 -25 0 0 188 c0 104 2 191 5 193 2 3 13 5 25 5 19 0 20 -5 20 -193z m-315
175 c35 -16 55 -57 55 -114 0 -42 -4 -51 -39 -84 l-39 -37 39 -59 c21 -33 39
-62 39 -66 0 -5 -12 -8 -27 -8 -23 0 -35 11 -67 60 -46 72 -53 77 -106 72
l-41 -4 5 -51 c5 -65 0 -77 -30 -77 l-24 0 0 190 0 190 105 0 c59 0 115 -5
130 -12z m768 1 c32 -14 57 -59 57 -102 0 -90 -46 -127 -157 -127 l-73 0 0
-70 c0 -68 -1 -70 -25 -70 l-25 0 0 190 0 190 100 0 c54 0 110 -5 123 -11z
m500 -9 c5 -18 0 -20 -54 -20 l-59 0 0 -165 0 -165 -30 0 -30 0 0 165 0 165
-60 0 c-53 0 -60 2 -60 20 0 19 7 20 144 20 135 0 144 -1 149 -20z"/>
<path d="M4445 7709 c-4 -5 -4 -13 -1 -16 3 -4 6 0 6 8 0 11 2 11 10 -1 6 -9
10 -10 10 -3 0 17 -17 25 -25 12z"/>
<path d="M4505 7180 c3 -5 8 -10 11 -10 2 0 4 5 4 10 0 6 -5 10 -11 10 -5 0
-7 -4 -4 -10z"/>
<path d="M5103 7415 c0 -22 2 -30 4 -17 2 12 2 30 0 40 -3 9 -5 -1 -4 -23z"/>
<path d="M5137 7262 c4 -10 8 -11 13 -2 11 17 24 -6 15 -28 -3 -9 -3 -13 1 -9
4 4 12 0 18 -9 10 -13 12 -11 10 13 -2 42 -3 45 -14 38 -5 -3 -10 -2 -10 4 0
5 -9 9 -19 8 -12 -1 -17 -6 -14 -15z"/>
<path d="M5195 7180 c3 -5 8 -10 11 -10 2 0 4 5 4 10 0 6 -5 10 -11 10 -5 0
-7 -4 -4 -10z"/>
<path d="M3231 6744 c0 -11 3 -14 6 -6 3 7 2 16 -1 19 -3 4 -6 -2 -5 -13z"/>
<path d="M6004 3909 c-9 -15 14 -18 32 -4 18 13 18 14 -4 12 -13 -1 -26 -5
-28 -8z"/>
<path d="M5945 3890 c3 -6 3 -16 -2 -22 -17 -28 -11 -42 7 -18 24 31 24 36 4
44 -8 3 -12 2 -9 -4z"/>
<path d="M3906 4627 c3 -10 9 -15 12 -12 3 3 0 11 -7 18 -10 9 -11 8 -5 -6z"/>
<path d="M3876 4595 c4 -8 8 -15 10 -15 2 0 4 7 4 15 0 8 -4 15 -10 15 -5 0
-7 -7 -4 -15z"/>
<path d="M3905 4570 c5 -36 12 -50 26 -50 6 0 3 10 -5 21 -8 12 -12 27 -10 34
3 7 1 16 -5 19 -6 4 -8 -6 -6 -24z"/>
<path d="M3950 4499 c0 -8 7 -24 15 -35 19 -25 19 -14 0 22 -8 16 -15 22 -15
13z"/>
<path d="M3980 4491 c0 -6 4 -13 10 -16 6 -3 7 1 4 9 -7 18 -14 21 -14 7z"/>
<path d="M4219 4221 c13 -8 40 -16 60 -17 20 0 30 1 23 3 -6 3 -10 9 -6 14 3
5 -7 4 -21 -1 -33 -13 -36 -13 -32 1 1 6 -9 13 -23 14 l-24 2 23 -16z"/>
<path d="M4270 4192 c0 -4 10 -13 23 -21 22 -14 22 -14 3 8 -20 22 -26 25 -26
13z"/>
<path d="M4365 4130 c3 -5 11 -10 16 -10 6 0 7 5 4 10 -3 6 -11 10 -16 10 -6
0 -7 -4 -4 -10z"/>
<path d="M4678 4033 c7 -3 16 -2 19 1 4 3 -2 6 -13 5 -11 0 -14 -3 -6 -6z"/>
<path d="M3303 6017 c12 -13 24 -22 26 -20 6 4 -30 43 -40 43 -5 0 2 -10 14
-23z"/>
<path d="M4840 5313 c-45 -17 -100 -99 -100 -151 0 -49 41 -113 90 -139 52
-28 91 -29 146 -4 121 55 122 224 2 287 -26 14 -108 18 -138 7z"/>
<path d="M2454 2771 c-2 -2 -4 -42 -4 -88 l0 -83 94 0 c78 0 97 3 119 20 33
26 41 62 23 104 -12 28 -23 37 -56 46 -38 10 -166 11 -176 1z"/>
<path d="M2452 2393 l3 -88 107 0 c98 0 109 2 130 23 33 32 32 106 -1 133 -20
16 -40 19 -132 19 l-110 0 3 -87z"/>
<path d="M3260 2664 l0 -106 99 4 c88 3 102 6 125 27 31 30 41 71 26 115 -18
54 -45 66 -155 66 l-95 0 0 -106z"/>
<path d="M3380 1745 c-39 -101 -52 -137 -48 -140 2 -2 31 -1 65 2 l61 6 -25
66 c-37 98 -40 101 -53 66z"/>
<path d="M4357 1763 c-9 -14 -57 -145 -57 -154 0 -5 29 -9 65 -9 36 0 65 2 65
5 0 6 -61 159 -65 163 -2 2 -5 -1 -8 -5z"/>
<path d="M5747 1793 c-4 -3 -7 -39 -7 -80 l0 -73 63 0 c34 0 73 6 86 13 55 28
48 116 -11 136 -34 12 -121 15 -131 4z"/>
<path d="M6528 1794 c-5 -4 -8 -38 -8 -76 l0 -69 71 3 c65 3 74 6 92 30 21 28
19 58 -6 91 -10 14 -31 20 -78 24 -35 3 -67 2 -71 -3z"/>
</g>
</svg>
